<svg version="2.0" width="800" height="600" xmlns="http://www.w3.org/2000/svg">
<g transform="translate(749, 774) translate(32, 32) translate(-32, -32)">
<image x="0" y="0" width="64" height="64" href="assets/stamps/rhalframp.png"/>
</g>
<g transform="translate(700, 774) translate(32, 32) translate(-32, -32)">
<image x="0" y="0" width="64" height="64" href="assets/stamps/square.png"/>
</g>
<g transform="translate(525, 721) translate(32, 32) translate(-32, -32)">
<image x="0" y="0" width="64" height="64" href="assets/stamps/circle.png"/>
</g>
<g transform="translate(522, 777) translate(32, 32) translate(-32, -32)">
<image x="0" y="0" width="64" height="64" href="assets/stamps/pipe.png"/>
</g>
<g transform="translate(524, 805) translate(32, 32) translate(-32, -32)">
<image x="0" y="0" width="64" height="64" href="assets/stamps/smallsquare.png"/>
</g>
<g transform="translate(385, 775) translate(32, 32) translate(-32, -32)">
<image x="0" y="0" width="64" height="64" href="assets/stamps/column.png"/>
</g>
<g transform="translate(343, 774) translate(32, 32) translate(-32, -32)">
<image x="0" y="0" width="64" height="64" href="assets/stamps/column.png"/>
</g>
<g transform="translate(278, 776) translate(32, 32) translate(-32, -32)">
<image x="0" y="0" width="64" height="64" href="assets/stamps/column.png"/>
</g>
<g transform="translate(226, 779) translate(32, 32) translate(-32, -32)">
<image x="0" y="0" width="64" height="64" href="assets/stamps/column.png"/>
</g>
<g transform="translate(303, 727) translate(32, 32) translate(-32, -32)">
<image x="0" y="0" width="64" height="64" href="assets/stamps/roof.png"/>
</g>
<g transform="translate(252, 713) translate(32, 32) translate(-32, -32)">
<image x="0" y="0" width="64" height="64" href="assets/stamps/square.png"/>
</g>
<g transform="translate(252, 713) translate(32, 32) translate(-32, -32)">
<image x="0" y="0" width="64" height="64" href="assets/stamps/square.png"/>
</g>
<g transform="translate(361, 711) translate(32, 32) translate(-32, -32)">
<image x="0" y="0" width="64" height="64" href="assets/stamps/square.png"/>
</g>
<g transform="translate(302, 657) translate(32, 32) translate(-32, -32)">
<image x="0" y="0" width="64" height="64" href="assets/stamps/square.png"/>
</g>
<g transform="translate(362, 657) translate(32, 32) translate(-32, -32)">
<image x="0" y="0" width="64" height="64" href="assets/stamps/square.png"/>
</g>
<g transform="translate(249, 660) translate(32, 32) translate(-32, -32)">
<image x="0" y="0" width="64" height="64" href="assets/stamps/square.png"/>
</g>
<g transform="translate(363, 594) translate(32, 32) translate(-32, -32)">
<image x="0" y="0" width="64" height="64" href="assets/stamps/square.png"/>
</g>
<g transform="translate(305, 594) translate(32, 32) translate(-32, -32)">
<image x="0" y="0" width="64" height="64" href="assets/stamps/square.png"/>
</g>
<g transform="translate(245, 598) translate(32, 32) translate(-32, -32)">
<image x="0" y="0" width="64" height="64" href="assets/stamps/square.png"/>
</g>
<g transform="translate(239, 535) translate(32, 32) translate(-32, -32)">
<image x="0" y="0" width="64" height="64" href="assets/stamps/square.png"/>
</g>
<g transform="translate(366, 555) translate(32, 32) rotate(83) translate(-32, -32)">
<image x="0" y="0" width="64" height="64" href="assets/stamps/lhalframp.png"/>
</g>
<g transform="translate(366, 555) translate(32, 32) rotate(83) translate(-32, -32)">
<image x="0" y="0" width="64" height="64" href="assets/stamps/lhalframp.png"/>
</g>
<g transform="translate(293, 533) translate(32, 32) rotate(83) translate(-32, -32)">
<image x="0" y="0" width="64" height="64" href="assets/stamps/lhalframp.png"/>
</g>
<g transform="translate(300, 552) translate(32, 32) rotate(83) translate(-32, -32)">
<image x="0" y="0" width="64" height="64" href="assets/stamps/lhalframp.png"/>
</g>
<g transform="translate(320, 561) translate(32, 32) rotate(270) translate(-32, -32)">
<image x="0" y="0" width="64" height="64" href="assets/stamps/lquartramp.png"/>
</g>
<g transform="translate(292, 555) translate(32, 32) rotate(270) translate(-32, -32)">
<image x="0" y="0" width="64" height="64" href="assets/stamps/lquartramp.png"/>
</g>
<g transform="translate(310, 554) translate(32, 32) rotate(270) translate(-32, -32)">
<image x="0" y="0" width="64" height="64" href="assets/stamps/lquartramp.png"/>
</g>
<g transform="translate(304, 553) translate(32, 32) rotate(270) translate(-32, -32)">
<image x="0" y="0" width="64" height="64" href="assets/stamps/lquartramp.png"/>
</g>
<g transform="translate(330, 546) translate(32, 32) rotate(460) translate(-32, -32)">
<image x="0" y="0" width="64" height="64" href="assets/stamps/lquartramp.png"/>
</g>
<g transform="translate(237, 473) translate(32, 32) translate(-32, -32)">
<image x="0" y="0" width="64" height="64" href="assets/stamps/windows.png"/>
</g>
<g transform="translate(237, 409) translate(32, 32) translate(-32, -32)">
<image x="0" y="0" width="64" height="64" href="assets/stamps/windows.png"/>
</g>
<g transform="translate(238, 347) translate(32, 32) translate(-32, -32)">
<image x="0" y="0" width="64" height="64" href="assets/stamps/windows.png"/>
</g>
<g transform="translate(298, 282) translate(32, 32) translate(-32, -32)">
<image x="0" y="0" width="64" height="64" href="assets/stamps/windows.png"/>
</g>
<g transform="translate(250, 289) translate(32, 32) translate(-32, -32)">
<image x="0" y="0" width="64" height="64" href="assets/stamps/house.png"/>
</g>
<g transform="translate(408, 779) translate(32, 32) translate(-32, -32)">
<image x="0" y="0" width="64" height="64" href="assets/stamps/house.png"/>
</g>
<g transform="translate(368, 552) translate(32, 32) translate(-32, -32)">
<image x="0" y="0" width="64" height="64" href="assets/stamps/house.png"/>
</g>
<g transform="translate(528, 684) translate(32, 32) translate(-32, -32)">
<image x="0" y="0" width="64" height="64" href="assets/stamps/house.png"/>
</g>
<g transform="translate(694, 717) translate(32, 32) translate(-32, -32)">
<image x="0" y="0" width="64" height="64" href="assets/stamps/house.png"/>
</g>
<g transform="translate(283, 510) translate(32, 32) translate(-32, -32)">
<image x="0" y="0" width="64" height="64" href="assets/stamps/medsquare.png"/>
</g>
<g transform="translate(282, 480) translate(32, 32) translate(-32, -32)">
<image x="0" y="0" width="64" height="64" href="assets/stamps/medsquare.png"/>
</g>
<g transform="translate(284, 324) translate(32, 32) translate(-32, -32)">
<image x="0" y="0" width="64" height="64" href="assets/stamps/medsquare.png"/>
</g>
<g transform="translate(629, 763) translate(32, 32) translate(-32, -32)">
<image x="0" y="0" width="64" height="64" href="assets/stamps/smallcircle.png"/>
</g>
<g transform="translate(628, 789) translate(32, 32) translate(-32, -32)">
<image x="0" y="0" width="64" height="64" href="assets/stamps/halfpipe.png"/>
</g>
<defs>
<clipPath id="0">
<polygon points="-128 -128,128 -128,128 128,-128 128,-128 -128,-1488 17,-734 17,-734 967,-1488 967,-1488 17,-128 -128,-744 -923,10 -923,10 27,-744 27,-744 -923,-128 -128"/>
</clipPath>
</defs>
</svg>