<svg version="2.0" width="800" height="600" xmlns="http://www.w3.org/2000/svg">
<g transform="translate(350, 533) translate(32, 32) translate(-32, -32)">
<image x="0" y="0" width="64" height="64" href="assets/stamps/porthole.png"/>
</g>
<g transform="translate(346, 483) translate(32, 32) rotate(-90) translate(-32, -32)">
<image x="0" y="0" width="64" height="64" href="assets/stamps/rhalframp.png"/>
</g>
<g transform="translate(417, 530) translate(32, 32) translate(-32, -32)">
<image x="0" y="0" width="64" height="64" href="assets/stamps/porthole.png"/>
</g>
<g transform="translate(417, 481) translate(32, 32) rotate(90) translate(-32, -32)">
<image x="0" y="0" width="64" height="64" href="assets/stamps/lhalframp.png"/>
</g>
<g transform="translate(483, 532) translate(32, 32) translate(-32, -32)">
<image x="0" y="0" width="64" height="64" href="assets/stamps/porthole.png"/>
</g>
<g transform="translate(541, 532) translate(32, 32) translate(-32, -32)">
<image x="0" y="0" width="64" height="64" href="assets/stamps/porthole.png"/>
</g>
<g transform="translate(547, 485) translate(32, 32) rotate(90) translate(-32, -32)">
<image x="0" y="0" width="64" height="64" href="assets/stamps/lhalframp.png"/>
</g>
<g transform="translate(485, 485) translate(32, 32) rotate(-90) translate(-32, -32)">
<image x="0" y="0" width="64" height="64" href="assets/stamps/rhalframp.png"/>
</g>
<g transform="translate(454, 489) translate(32, 32) translate(-32, -32)">
<image x="0" y="0" width="64" height="64" href="assets/stamps/medsquare.png"/>
</g>
<g transform="translate(570, 475) translate(32, 32) rotate(180) translate(-32, -32)">
<image x="0" y="0" width="64" height="64" href="assets/stamps/pipe.png"/>
</g>
<g transform="translate(473, 464) translate(32, 32) rotate(180) translate(-32, -32)">
<image x="0" y="0" width="64" height="64" href="assets/stamps/pipe.png"/>
</g>
<g transform="translate(498, 428) translate(32, 32) rotate(90) translate(-32, -32)">
<image x="0" y="0" width="64" height="64" href="assets/stamps/pipe.png"/>
</g>
<g transform="translate(552, 434) translate(32, 32) rotate(109) translate(-32, -32)">
<image x="0" y="0" width="64" height="64" href="assets/stamps/pipe.png"/>
</g>
<g transform="translate(440, 412) translate(32, 32) rotate(109) translate(-32, -32)">
<image x="0" y="0" width="64" height="64" href="assets/stamps/pipe.png"/>
</g>
<g transform="translate(377, 410) translate(32, 32) rotate(75) translate(-32, -32)">
<image x="0" y="0" width="64" height="64" href="assets/stamps/pipe.png"/>
</g>
<g transform="translate(312, 429) translate(32, 32) rotate(75) translate(-32, -32)">
<image x="0" y="0" width="64" height="64" href="assets/stamps/pipe.png"/>
</g>
<g transform="translate(298, 471) translate(32, 32) rotate(-26) translate(-32, -32)">
<image x="0" y="0" width="64" height="64" href="assets/stamps/pipe.png"/>
</g>
</svg>