<svg version="2.0" width="1600" height="600" xmlns="http://www.w3.org/2000/svg">
<g transform="translate(366, 535) translate(32, 32) translate(-32, -32)">
<image x="0" y="0" width="64" height="64" href="assets/eichler.svg"/>
</g>
<g transform="translate(367, 488) translate(32, 32) translate(-32, -32)">
<image x="0" y="0" width="64" height="64" href="assets/roof.svg"/>
</g>
<g transform="translate(431, 536) translate(32, 32) translate(-32, -32)">
<image x="0" y="0" width="64" height="64" href="assets/windows.svg"/>
</g>
<g transform="translate(498, 537) translate(32, 32) translate(-32, -32)">
<image x="0" y="0" width="64" height="64" href="assets/windows.svg"/>
</g>
<g transform="translate(564, 538) translate(32, 32) translate(-32, -32)">
<image x="0" y="0" width="64" height="64" href="assets/windows.svg"/>
</g>
<g transform="translate(563, 472) translate(32, 32) translate(-32, -32)">
<image x="0" y="0" width="64" height="64" href="assets/windows.svg"/>
</g>
<g transform="translate(429, 471) translate(32, 32) translate(-32, -32)">
<image x="0" y="0" width="64" height="64" href="assets/windows.svg"/>
</g>
<g transform="translate(492, 470) translate(32, 32) translate(-32, -32)">
<image x="0" y="0" width="64" height="64" href="assets/windows.svg"/>
</g>
<g transform="translate(558, 407) translate(32, 32) translate(-32, -32)">
<image x="0" y="0" width="64" height="64" href="assets/windows.svg"/>
</g>
<g transform="translate(558, 407) translate(32, 32) translate(-32, -32)">
<image x="0" y="0" width="64" height="64" href="assets/windows.svg"/>
</g>
<g transform="translate(493, 402) translate(32, 32) translate(-32, -32)">
<image x="0" y="0" width="64" height="64" href="assets/windows.svg"/>
</g>
<g transform="translate(425, 403) translate(32, 32) translate(-32, -32)">
<image x="0" y="0" width="64" height="64" href="assets/windows.svg"/>
</g>
<g transform="translate(492, 344) translate(32, 32) translate(-32, -32)">
<image x="0" y="0" width="64" height="64" href="assets/windows.svg"/>
</g>
<g transform="translate(551, 343) translate(32, 32) translate(-32, -32)">
<image x="0" y="0" width="64" height="64" href="assets/windows.svg"/>
</g>
<g transform="translate(430, 345) translate(32, 32) translate(-32, -32)">
<image x="0" y="0" width="64" height="64" href="assets/windows.svg"/>
</g>
<g transform="translate(437, 285) translate(32, 32) translate(-32, -32)">
<image x="0" y="0" width="64" height="64" href="assets/windows.svg"/>
</g>
<g transform="translate(503, 284) translate(32, 32) translate(-32, -32)">
<image x="0" y="0" width="64" height="64" href="assets/windows.svg"/>
</g>
<g transform="translate(543, 287) translate(32, 32) translate(-32, -32)">
<image x="0" y="0" width="64" height="64" href="assets/windows.svg"/>
</g>
<g transform="translate(510, 223) translate(32, 32) translate(-32, -32)">
<image x="0" y="0" width="64" height="64" href="assets/windows.svg"/>
</g>
<g transform="translate(446, 221) translate(32, 32) translate(-32, -32)">
<image x="0" y="0" width="64" height="64" href="assets/windows.svg"/>
</g>
<g transform="translate(462, 156) translate(32, 32) translate(-32, -32)">
<image x="0" y="0" width="64" height="64" href="assets/windows.svg"/>
</g>
<g transform="translate(576, 225) translate(32, 32) translate(-32, -32)">
<image x="0" y="0" width="64" height="64" href="assets/windows.svg"/>
</g>
<g transform="translate(528, 157) translate(32, 32) translate(-32, -32)">
<image x="0" y="0" width="64" height="64" href="assets/windows.svg"/>
</g>
<g transform="translate(639, 221) translate(32, 32) translate(-32, -32)">
<image x="0" y="0" width="64" height="64" href="assets/windows.svg"/>
</g>
<g transform="translate(699, 221) translate(32, 32) translate(-32, -32)">
<image x="0" y="0" width="64" height="64" href="assets/windows.svg"/>
</g>
<g transform="translate(598, 158) translate(32, 32) translate(-32, -32)">
<image x="0" y="0" width="64" height="64" href="assets/windows.svg"/>
</g>
<g transform="translate(571, 97) translate(32, 32) translate(-32, -32)">
<image x="0" y="0" width="64" height="64" href="assets/windows.svg"/>
</g>
<g transform="translate(660, 157) translate(32, 32) translate(-32, -32)">
<image x="0" y="0" width="64" height="64" href="assets/windows.svg"/>
</g>
<g transform="translate(510, 95) translate(32, 32) translate(-32, -32)">
<image x="0" y="0" width="64" height="64" href="assets/windows.svg"/>
</g>
<g transform="translate(510, 32) translate(32, 32) translate(-32, -32)">
<image x="0" y="0" width="64" height="64" href="assets/windows.svg"/>
</g>
<g transform="translate(575, 34) translate(32, 32) translate(-32, -32)">
<image x="0" y="0" width="64" height="64" href="assets/windows.svg"/>
</g>
<g transform="translate(727, 157) translate(32, 32) translate(-32, -32)">
<image x="0" y="0" width="64" height="64" href="assets/windows.svg"/>
</g>
<g transform="translate(761, 217) translate(32, 32) translate(-32, -32)">
<image x="0" y="0" width="64" height="64" href="assets/windows.svg"/>
</g>
<g transform="translate(765, 153) translate(32, 32) translate(-32, -32)">
<image x="0" y="0" width="64" height="64" href="assets/windows.svg"/>
</g>
<g transform="translate(825, 212) translate(32, 32) translate(-32, -32)">
<image x="0" y="0" width="64" height="64" href="assets/windows.svg"/>
</g>
<g transform="translate(836, 147) translate(32, 32) translate(-32, -32)">
<image x="0" y="0" width="64" height="64" href="assets/windows.svg"/>
</g>
<g transform="translate(629, 535) translate(32, 32) translate(-32, -32)">
<image x="0" y="0" width="64" height="64" href="assets/arch.svg"/>
</g>
<g transform="translate(695, 538) translate(32, 32) translate(-32, -32)">
<image x="0" y="0" width="64" height="64" href="assets/arch.svg"/>
</g>
<g transform="translate(750, 542) translate(32, 32) translate(-32, -32)">
<image x="0" y="0" width="64" height="64" href="assets/arch.svg"/>
</g>
<g transform="translate(822, 531) translate(32, 32) translate(-32, -32)">
<image x="0" y="0" width="64" height="64" href="assets/arch.svg"/>
</g>
<g transform="translate(889, 534) translate(32, 32) translate(-32, -32)">
<image x="0" y="0" width="64" height="64" href="assets/arch.svg"/>
</g>
<g transform="translate(654, 474) translate(32, 32) translate(-32, -32)">
<image x="0" y="0" width="64" height="64" href="assets/doric.svg"/>
</g>
<g transform="translate(720, 471) translate(32, 32) translate(-32, -32)">
<image x="0" y="0" width="64" height="64" href="assets/doric.svg"/>
</g>
<g transform="translate(777, 478) translate(32, 32) translate(-32, -32)">
<image x="0" y="0" width="64" height="64" href="assets/doric.svg"/>
</g>
<g transform="translate(858, 466) translate(32, 32) translate(-32, -32)">
<image x="0" y="0" width="64" height="64" href="assets/doric.svg"/>
</g>
<g transform="translate(908, 476) translate(32, 32) translate(-32, -32)">
<image x="0" y="0" width="64" height="64" href="assets/doric.svg"/>
</g>
<g transform="translate(860, 405) translate(32, 32) translate(-32, -32)">
<image x="0" y="0" width="64" height="64" href="assets/doric.svg"/>
</g>
<g transform="translate(907, 407) translate(32, 32) translate(-32, -32)">
<image x="0" y="0" width="64" height="64" href="assets/doric.svg"/>
</g>
<g transform="translate(779, 421) translate(32, 32) translate(-32, -32)">
<image x="0" y="0" width="64" height="64" href="assets/doric.svg"/>
</g>
<g transform="translate(779, 421) translate(32, 32) translate(-32, -32)">
<image x="0" y="0" width="64" height="64" href="assets/doric.svg"/>
</g>
<g transform="translate(721, 405) translate(32, 32) translate(-32, -32)">
<image x="0" y="0" width="64" height="64" href="assets/doric.svg"/>
</g>
<g transform="translate(658, 408) translate(32, 32) translate(-32, -32)">
<image x="0" y="0" width="64" height="64" href="assets/doric.svg"/>
</g>
<g transform="translate(658, 340) translate(32, 32) translate(-32, -32)">
<image x="0" y="0" width="64" height="64" href="assets/doric.svg"/>
</g>
<g transform="translate(723, 345) translate(32, 32) translate(-32, -32)">
<image x="0" y="0" width="64" height="64" href="assets/doric.svg"/>
</g>
<g transform="translate(782, 359) translate(32, 32) translate(-32, -32)">
<image x="0" y="0" width="64" height="64" href="assets/doric.svg"/>
</g>
<g transform="translate(866, 336) translate(32, 32) translate(-32, -32)">
<image x="0" y="0" width="64" height="64" href="assets/doric.svg"/>
</g>
<g transform="translate(908, 346) translate(32, 32) translate(-32, -32)">
<image x="0" y="0" width="64" height="64" href="assets/doric.svg"/>
</g>
<g transform="translate(911, 286) translate(32, 32) translate(-32, -32)">
<image x="0" y="0" width="64" height="64" href="assets/doric.svg"/>
</g>
<g transform="translate(888, 142) translate(32, 32) translate(-32, -32)">
<image x="0" y="0" width="64" height="64" href="assets/windows.svg"/>
</g>
<g transform="translate(889, 206) translate(32, 32) translate(-32, -32)">
<image x="0" y="0" width="64" height="64" href="assets/windows.svg"/>
</g>
<g transform="translate(888, 224) translate(32, 32) translate(-32, -32)">
<image x="0" y="0" width="64" height="64" href="assets/windows.svg"/>
</g>
<g transform="translate(747, 294) translate(32, 32) translate(-32, -32)">
<image x="0" y="0" width="64" height="64" href="assets/windows.svg"/>
</g>
<g transform="translate(821, 278) translate(32, 32) translate(-32, -32)">
<image x="0" y="0" width="64" height="64" href="assets/windows.svg"/>
</g>
<g transform="translate(694, 291) translate(32, 32) translate(-32, -32)">
<image x="0" y="0" width="64" height="64" href="assets/windows.svg"/>
</g>
<g transform="translate(613, 290) translate(32, 32) translate(-32, -32)">
<image x="0" y="0" width="64" height="64" href="assets/windows.svg"/>
</g>
</svg>
