<svg version="2.0" width="800" height="600" xmlns="http://www.w3.org/2000/svg">
<g transform="translate(353, 481) translate(32, 32) rotate(90) translate(-32, -32)">
<image x="0" y="0" width="64" height="64" href="assets/stamps/rect.png"/>
</g>
<g transform="translate(422, 481) translate(32, 32) rotate(90) translate(-32, -32)">
<image x="0" y="0" width="64" height="64" href="assets/stamps/rect.png"/>
</g>
<g transform="translate(490, 481) translate(32, 32) rotate(90) translate(-32, -32)">
<image x="0" y="0" width="64" height="64" href="assets/stamps/rect.png"/>
</g>
<g transform="translate(558, 481) translate(32, 32) rotate(90) translate(-32, -32)">
<image x="0" y="0" width="64" height="64" href="assets/stamps/rect.png"/>
</g>
<g transform="translate(387, 455) translate(32, 32) rotate(90) translate(-32, -32)">
<image x="0" y="0" width="64" height="64" href="assets/stamps/thinrect.png"/>
</g>
<g transform="translate(455, 455) translate(32, 32) rotate(90) translate(-32, -32)">
<image x="0" y="0" width="64" height="64" href="assets/stamps/thinrect.png"/>
</g>
<g transform="translate(522, 455) translate(32, 32) rotate(90) translate(-32, -32)">
<image x="0" y="0" width="64" height="64" href="assets/stamps/thinrect.png"/>
</g>
<g transform="translate(456, 531) translate(32, 32) translate(-32, -32)">
<image x="0" y="0" width="64" height="64" href="assets/stamps/n.png"/>
</g>
<g transform="translate(499, 531) translate(32, 32) translate(-32, -32)">
<image x="0" y="0" width="64" height="64" href="assets/stamps/doric.png"/>
</g>
<g transform="translate(413, 531) translate(32, 32) translate(-32, -32)">
<image x="0" y="0" width="64" height="64" href="assets/stamps/doric.png"/>
</g>
<g transform="translate(582, 531) translate(32, 32) translate(-32, -32)">
<image x="0" y="0" width="64" height="64" href="assets/stamps/doric.png"/>
</g>
<g transform="translate(329, 531) translate(32, 32) translate(-32, -32)">
<image x="0" y="0" width="64" height="64" href="assets/stamps/doric.png"/>
</g>
<g transform="translate(354, 531) translate(32, 32) translate(-32, -32)">
<image x="0" y="0" width="64" height="64" href="assets/stamps/rect.png"/>
</g>
<g transform="translate(558, 529) translate(32, 32) translate(-32, -32)">
<image x="0" y="0" width="64" height="64" href="assets/stamps/rect.png"/>
</g>
<g transform="translate(389, 556) translate(32, 32) rotate(90) translate(-32, -32)">
<image x="0" y="0" width="64" height="64" href="assets/stamps/halfthinrect.png"/>
</g>
<g transform="translate(526, 556) translate(32, 32) rotate(90) translate(-32, -32)">
<image x="0" y="0" width="64" height="64" href="assets/stamps/halfthinrect.png"/>
</g>
<g transform="translate(389, 506) translate(32, 32) rotate(90) translate(-32, -32)">
<image x="0" y="0" width="64" height="64" href="assets/stamps/halfthinrect.png"/>
</g>
<g transform="translate(524, 506) translate(32, 32) rotate(90) translate(-32, -32)">
<image x="0" y="0" width="64" height="64" href="assets/stamps/halfthinrect.png"/>
</g>
<g transform="translate(336, 455) translate(32, 32) rotate(90) translate(-32, -32)">
<image x="0" y="0" width="64" height="64" href="assets/stamps/halfthinrect.png"/>
</g>
<g transform="translate(573, 455) translate(32, 32) rotate(90) translate(-32, -32)">
<image x="0" y="0" width="64" height="64" href="assets/stamps/halfthinrect.png"/>
</g>
<g transform="translate(328, 414) translate(32, 32) translate(-32, -32)">
<image x="0" y="0" width="64" height="64" href="assets/stamps/thinrect.png"/>
</g>
<g transform="translate(580, 413) translate(32, 32) translate(-32, -32)">
<image x="0" y="0" width="64" height="64" href="assets/stamps/thinrect.png"/>
</g>
<g transform="translate(369, 413) translate(32, 32) translate(-32, -32)">
<image x="0" y="0" width="64" height="64" href="assets/stamps/windows.png"/>
</g>
<g transform="translate(537, 412) translate(32, 32) translate(-32, -32)">
<image x="0" y="0" width="64" height="64" href="assets/stamps/windows.png"/>
</g>
<g transform="translate(455, 412) translate(32, 32) translate(-32, -32)">
<image x="0" y="0" width="64" height="64" href="assets/stamps/windows.png"/>
</g>
<g transform="translate(406, 413) translate(32, 32) translate(-32, -32)">
<image x="0" y="0" width="64" height="64" href="assets/stamps/pipe.png"/>
</g>
<g transform="translate(416, 413) translate(32, 32) translate(-32, -32)">
<image x="0" y="0" width="64" height="64" href="assets/stamps/pipe.png"/>
</g>
<g transform="translate(493, 412) translate(32, 32) translate(-32, -32)">
<image x="0" y="0" width="64" height="64" href="assets/stamps/pipe.png"/>
</g>
<g transform="translate(500, 412) translate(32, 32) translate(-32, -32)">
<image x="0" y="0" width="64" height="64" href="assets/stamps/pipe.png"/>
</g>
<g transform="translate(351, 370) translate(32, 32) rotate(90) translate(-32, -32)">
<image x="0" y="0" width="64" height="64" href="assets/stamps/thinrect.png"/>
</g>
<g transform="translate(419, 370) translate(32, 32) rotate(90) translate(-32, -32)">
<image x="0" y="0" width="64" height="64" href="assets/stamps/thinrect.png"/>
</g>
<g transform="translate(488, 370) translate(32, 32) rotate(90) translate(-32, -32)">
<image x="0" y="0" width="64" height="64" href="assets/stamps/thinrect.png"/>
</g>
<g transform="translate(555, 370) translate(32, 32) rotate(90) translate(-32, -32)">
<image x="0" y="0" width="64" height="64" href="assets/stamps/thinrect.png"/>
</g>
<g transform="translate(334, 353) translate(32, 32) rotate(90) translate(-32, -32)">
<image x="0" y="0" width="64" height="64" href="assets/stamps/halfthinrect.png"/>
</g>
<g transform="translate(385, 353) translate(32, 32) rotate(90) translate(-32, -32)">
<image x="0" y="0" width="64" height="64" href="assets/stamps/thinrect.png"/>
</g>
<g transform="translate(451, 353) translate(32, 32) rotate(90) translate(-32, -32)">
<image x="0" y="0" width="64" height="64" href="assets/stamps/thinrect.png"/>
</g>
<g transform="translate(520, 353) translate(32, 32) rotate(90) translate(-32, -32)">
<image x="0" y="0" width="64" height="64" href="assets/stamps/thinrect.png"/>
</g>
<g transform="translate(572, 352) translate(32, 32) rotate(90) translate(-32, -32)">
<image x="0" y="0" width="64" height="64" href="assets/stamps/halfthinrect.png"/>
</g>
<g transform="translate(452, 312) translate(32, 32) translate(-32, -32)">
<image x="0" y="0" width="64" height="64" href="assets/stamps/windows.png"/>
</g>
<g transform="translate(538, 312) translate(32, 32) translate(-32, -32)">
<image x="0" y="0" width="64" height="64" href="assets/stamps/windows.png"/>
</g>
<g transform="translate(368, 311) translate(32, 32) translate(-32, -32)">
<image x="0" y="0" width="64" height="64" href="assets/stamps/windows.png"/>
</g>
<g transform="translate(326, 311) translate(32, 32) translate(-32, -32)">
<image x="0" y="0" width="64" height="64" href="assets/stamps/thinrect.png"/>
</g>
<g transform="translate(410, 311) translate(32, 32) translate(-32, -32)">
<image x="0" y="0" width="64" height="64" href="assets/stamps/thinrect.png"/>
</g>
<g transform="translate(495, 312) translate(32, 32) translate(-32, -32)">
<image x="0" y="0" width="64" height="64" href="assets/stamps/thinrect.png"/>
</g>
<g transform="translate(581, 311) translate(32, 32) translate(-32, -32)">
<image x="0" y="0" width="64" height="64" href="assets/stamps/thinrect.png"/>
</g>
<g transform="translate(322, 270) translate(32, 32) translate(-32, -32)">
<image x="0" y="0" width="64" height="64" href="assets/stamps/quartpipe.png"/>
</g>
<g transform="translate(329, 270) translate(32, 32) translate(-32, -32)">
<image x="0" y="0" width="64" height="64" href="assets/stamps/quartpipe.png"/>
</g>
<g transform="translate(336, 270) translate(32, 32) translate(-32, -32)">
<image x="0" y="0" width="64" height="64" href="assets/stamps/quartpipe.png"/>
</g>
<g transform="translate(343, 270) translate(32, 32) translate(-32, -32)">
<image x="0" y="0" width="64" height="64" href="assets/stamps/quartpipe.png"/>
</g>
<g transform="translate(351, 270) translate(32, 32) translate(-32, -32)">
<image x="0" y="0" width="64" height="64" href="assets/stamps/quartpipe.png"/>
</g>
<g transform="translate(358, 270) translate(32, 32) translate(-32, -32)">
<image x="0" y="0" width="64" height="64" href="assets/stamps/quartpipe.png"/>
</g>
<g transform="translate(365, 270) translate(32, 32) translate(-32, -32)">
<image x="0" y="0" width="64" height="64" href="assets/stamps/quartpipe.png"/>
</g>
<g transform="translate(373, 270) translate(32, 32) translate(-32, -32)">
<image x="0" y="0" width="64" height="64" href="assets/stamps/quartpipe.png"/>
</g>
<g transform="translate(380, 270) translate(32, 32) translate(-32, -32)">
<image x="0" y="0" width="64" height="64" href="assets/stamps/quartpipe.png"/>
</g>
<g transform="translate(387, 270) translate(32, 32) translate(-32, -32)">
<image x="0" y="0" width="64" height="64" href="assets/stamps/quartpipe.png"/>
</g>
<g transform="translate(394, 270) translate(32, 32) translate(-32, -32)">
<image x="0" y="0" width="64" height="64" href="assets/stamps/quartpipe.png"/>
</g>
<g transform="translate(401, 270) translate(32, 32) translate(-32, -32)">
<image x="0" y="0" width="64" height="64" href="assets/stamps/quartpipe.png"/>
</g>
<g transform="translate(408, 270) translate(32, 32) translate(-32, -32)">
<image x="0" y="0" width="64" height="64" href="assets/stamps/quartpipe.png"/>
</g>
<g transform="translate(415, 270) translate(32, 32) translate(-32, -32)">
<image x="0" y="0" width="64" height="64" href="assets/stamps/quartpipe.png"/>
</g>
<g transform="translate(422, 270) translate(32, 32) translate(-32, -32)">
<image x="0" y="0" width="64" height="64" href="assets/stamps/quartpipe.png"/>
</g>
<g transform="translate(430, 270) translate(32, 32) translate(-32, -32)">
<image x="0" y="0" width="64" height="64" href="assets/stamps/quartpipe.png"/>
</g>
<g transform="translate(437, 270) translate(32, 32) translate(-32, -32)">
<image x="0" y="0" width="64" height="64" href="assets/stamps/quartpipe.png"/>
</g>
<g transform="translate(443, 270) translate(32, 32) translate(-32, -32)">
<image x="0" y="0" width="64" height="64" href="assets/stamps/quartpipe.png"/>
</g>
<g transform="translate(450, 270) translate(32, 32) translate(-32, -32)">
<image x="0" y="0" width="64" height="64" href="assets/stamps/quartpipe.png"/>
</g>
<g transform="translate(457, 270) translate(32, 32) translate(-32, -32)">
<image x="0" y="0" width="64" height="64" href="assets/stamps/quartpipe.png"/>
</g>
<g transform="translate(464, 270) translate(32, 32) translate(-32, -32)">
<image x="0" y="0" width="64" height="64" href="assets/stamps/quartpipe.png"/>
</g>
<g transform="translate(472, 270) translate(32, 32) translate(-32, -32)">
<image x="0" y="0" width="64" height="64" href="assets/stamps/quartpipe.png"/>
</g>
<g transform="translate(480, 270) translate(32, 32) translate(-32, -32)">
<image x="0" y="0" width="64" height="64" href="assets/stamps/quartpipe.png"/>
</g>
<g transform="translate(487, 270) translate(32, 32) translate(-32, -32)">
<image x="0" y="0" width="64" height="64" href="assets/stamps/quartpipe.png"/>
</g>
<g transform="translate(495, 270) translate(32, 32) translate(-32, -32)">
<image x="0" y="0" width="64" height="64" href="assets/stamps/quartpipe.png"/>
</g>
<g transform="translate(503, 270) translate(32, 32) translate(-32, -32)">
<image x="0" y="0" width="64" height="64" href="assets/stamps/quartpipe.png"/>
</g>
<g transform="translate(511, 270) translate(32, 32) translate(-32, -32)">
<image x="0" y="0" width="64" height="64" href="assets/stamps/quartpipe.png"/>
</g>
<g transform="translate(520, 270) translate(32, 32) translate(-32, -32)">
<image x="0" y="0" width="64" height="64" href="assets/stamps/quartpipe.png"/>
</g>
<g transform="translate(586, 270) translate(32, 32) translate(-32, -32)">
<image x="0" y="0" width="64" height="64" href="assets/stamps/quartpipe.png"/>
</g>
<g transform="translate(578, 270) translate(32, 32) translate(-32, -32)">
<image x="0" y="0" width="64" height="64" href="assets/stamps/quartpipe.png"/>
</g>
<g transform="translate(527, 270) translate(32, 32) translate(-32, -32)">
<image x="0" y="0" width="64" height="64" href="assets/stamps/quartpipe.png"/>
</g>
<g transform="translate(534, 270) translate(32, 32) translate(-32, -32)">
<image x="0" y="0" width="64" height="64" href="assets/stamps/quartpipe.png"/>
</g>
<g transform="translate(541, 270) translate(32, 32) translate(-32, -32)">
<image x="0" y="0" width="64" height="64" href="assets/stamps/quartpipe.png"/>
</g>
<g transform="translate(549, 270) translate(32, 32) translate(-32, -32)">
<image x="0" y="0" width="64" height="64" href="assets/stamps/quartpipe.png"/>
</g>
<g transform="translate(556, 270) translate(32, 32) translate(-32, -32)">
<image x="0" y="0" width="64" height="64" href="assets/stamps/quartpipe.png"/>
</g>
<g transform="translate(571, 270) translate(32, 32) translate(-32, -32)">
<image x="0" y="0" width="64" height="64" href="assets/stamps/quartpipe.png"/>
</g>
<g transform="translate(564, 270) translate(32, 32) translate(-32, -32)">
<image x="0" y="0" width="64" height="64" href="assets/stamps/quartpipe.png"/>
</g>
<g transform="translate(350, 253) translate(32, 32) rotate(90) translate(-32, -32)">
<image x="0" y="0" width="64" height="64" href="assets/stamps/thinrect.png"/>
</g>
<g transform="translate(421, 253) translate(32, 32) rotate(90) translate(-32, -32)">
<image x="0" y="0" width="64" height="64" href="assets/stamps/thinrect.png"/>
</g>
<g transform="translate(557, 252) translate(32, 32) rotate(90) translate(-32, -32)">
<image x="0" y="0" width="64" height="64" href="assets/stamps/thinrect.png"/>
</g>
<g transform="translate(489, 252) translate(32, 32) rotate(90) translate(-32, -32)">
<image x="0" y="0" width="64" height="64" href="assets/stamps/thinrect.png"/>
</g>
<g transform="translate(299, 277) translate(32, 32) translate(-32, -32)">
<image x="0" y="0" width="64" height="64" href="assets/stamps/rarch.png"/>
</g>
<g transform="translate(608, 278) translate(32, 32) translate(-32, -32)">
<image x="0" y="0" width="64" height="64" href="assets/stamps/larch.png"/>
</g>
<g transform="translate(351, 210) translate(32, 32) translate(-32, -32)">
<image x="0" y="0" width="64" height="64" href="assets/stamps/windows.png"/>
</g>
<g transform="translate(559, 210) translate(32, 32) translate(-32, -32)">
<image x="0" y="0" width="64" height="64" href="assets/stamps/windows.png"/>
</g>
<g transform="translate(458, 211) translate(32, 32) translate(-32, -32)">
<image x="0" y="0" width="64" height="64" href="assets/stamps/windows.png"/>
</g>
<g transform="translate(405, 187) translate(32, 32) rotate(90) translate(-32, -32)">
<image x="0" y="0" width="64" height="64" href="assets/stamps/halfthinrect.png"/>
</g>
<g transform="translate(406, 235) translate(32, 32) rotate(90) translate(-32, -32)">
<image x="0" y="0" width="64" height="64" href="assets/stamps/halfthinrect.png"/>
</g>
<g transform="translate(397, 211) translate(32, 32) rotate(180) translate(-32, -32)">
<image x="0" y="0" width="64" height="64" href="assets/stamps/halfthinrect.png"/>
</g>
<g transform="translate(414, 211) translate(32, 32) rotate(180) translate(-32, -32)">
<image x="0" y="0" width="64" height="64" href="assets/stamps/halfthinrect.png"/>
</g>
<g transform="translate(509, 187) translate(32, 32) rotate(270) translate(-32, -32)">
<image x="0" y="0" width="64" height="64" href="assets/stamps/halfthinrect.png"/>
</g>
<g transform="translate(508, 236) translate(32, 32) rotate(270) translate(-32, -32)">
<image x="0" y="0" width="64" height="64" href="assets/stamps/halfthinrect.png"/>
</g>
<g transform="translate(501, 211) translate(32, 32) translate(-32, -32)">
<image x="0" y="0" width="64" height="64" href="assets/stamps/halfthinrect.png"/>
</g>
<g transform="translate(516, 211) translate(32, 32) translate(-32, -32)">
<image x="0" y="0" width="64" height="64" href="assets/stamps/halfthinrect.png"/>
</g>
<g transform="translate(314, 210) translate(32, 32) translate(-32, -32)">
<image x="0" y="0" width="64" height="64" href="assets/stamps/pipe.png"/>
</g>
<g transform="translate(596, 211) translate(32, 32) translate(-32, -32)">
<image x="0" y="0" width="64" height="64" href="assets/stamps/pipe.png"/>
</g>
<g transform="translate(291, 232) translate(32, 32) translate(-32, -32)">
<image x="0" y="0" width="64" height="64" href="assets/stamps/smallcircle.png"/>
</g>
<g transform="translate(301, 214) translate(32, 32) translate(-32, -32)">
<image x="0" y="0" width="64" height="64" href="assets/stamps/smallcircle.png"/>
</g>
<g transform="translate(610, 237) translate(32, 32) translate(-32, -32)">
<image x="0" y="0" width="64" height="64" href="assets/stamps/smallcircle.png"/>
</g>
<g transform="translate(620, 220) translate(32, 32) translate(-32, -32)">
<image x="0" y="0" width="64" height="64" href="assets/stamps/smallcircle.png"/>
</g>
<g transform="translate(290, 241) translate(32, 32) translate(-32, -32)">
<image x="0" y="0" width="64" height="64" href="assets/stamps/quartpipe.png"/>
</g>
<g transform="translate(303, 228) translate(32, 32) translate(-32, -32)">
<image x="0" y="0" width="64" height="64" href="assets/stamps/quartpipe.png"/>
</g>
<g transform="translate(302, 239) translate(32, 32) translate(-32, -32)">
<image x="0" y="0" width="64" height="64" href="assets/stamps/quartpipe.png"/>
</g>
<g transform="translate(607, 246) translate(32, 32) translate(-32, -32)">
<image x="0" y="0" width="64" height="64" href="assets/stamps/quartpipe.png"/>
</g>
<g transform="translate(620, 240) translate(32, 32) translate(-32, -32)">
<image x="0" y="0" width="64" height="64" href="assets/stamps/quartpipe.png"/>
</g>
<g transform="translate(621, 232) translate(32, 32) translate(-32, -32)">
<image x="0" y="0" width="64" height="64" href="assets/stamps/quartpipe.png"/>
</g>
<g transform="translate(325, 170) translate(32, 32) rotate(270) translate(-32, -32)">
<image x="0" y="0" width="64" height="64" href="assets/stamps/pipe.png"/>
</g>
<g transform="translate(393, 170) translate(32, 32) rotate(270) translate(-32, -32)">
<image x="0" y="0" width="64" height="64" href="assets/stamps/pipe.png"/>
</g>
<g transform="translate(462, 170) translate(32, 32) rotate(270) translate(-32, -32)">
<image x="0" y="0" width="64" height="64" href="assets/stamps/pipe.png"/>
</g>
<g transform="translate(528, 170) translate(32, 32) rotate(270) translate(-32, -32)">
<image x="0" y="0" width="64" height="64" href="assets/stamps/pipe.png"/>
</g>
<g transform="translate(595, 170) translate(32, 32) rotate(270) translate(-32, -32)">
<image x="0" y="0" width="64" height="64" href="assets/stamps/pipe.png"/>
</g>
<g transform="translate(393, 130) translate(32, 32) translate(-32, -32)">
<image x="0" y="0" width="64" height="64" href="assets/stamps/windows.png"/>
</g>
<g transform="translate(523, 131) translate(32, 32) translate(-32, -32)">
<image x="0" y="0" width="64" height="64" href="assets/stamps/windows.png"/>
</g>
<g transform="translate(350, 131) translate(32, 32) translate(-32, -32)">
<image x="0" y="0" width="64" height="64" href="assets/stamps/thinrect.png"/>
</g>
<g transform="translate(435, 130) translate(32, 32) translate(-32, -32)">
<image x="0" y="0" width="64" height="64" href="assets/stamps/thinrect.png"/>
</g>
<g transform="translate(480, 130) translate(32, 32) translate(-32, -32)">
<image x="0" y="0" width="64" height="64" href="assets/stamps/thinrect.png"/>
</g>
<g transform="translate(564, 131) translate(32, 32) translate(-32, -32)">
<image x="0" y="0" width="64" height="64" href="assets/stamps/thinrect.png"/>
</g>
<g transform="translate(357, 89) translate(32, 32) rotate(90) translate(-32, -32)">
<image x="0" y="0" width="64" height="64" href="assets/stamps/halfthinrect.png"/>
</g>
<g transform="translate(394, 89) translate(32, 32) rotate(90) translate(-32, -32)">
<image x="0" y="0" width="64" height="64" href="assets/stamps/halfthinrect.png"/>
</g>
<g transform="translate(426, 88) translate(32, 32) rotate(90) translate(-32, -32)">
<image x="0" y="0" width="64" height="64" href="assets/stamps/halfthinrect.png"/>
</g>
<g transform="translate(487, 87) translate(32, 32) rotate(90) translate(-32, -32)">
<image x="0" y="0" width="64" height="64" href="assets/stamps/halfthinrect.png"/>
</g>
<g transform="translate(524, 87) translate(32, 32) rotate(90) translate(-32, -32)">
<image x="0" y="0" width="64" height="64" href="assets/stamps/halfthinrect.png"/>
</g>
<g transform="translate(557, 87) translate(32, 32) rotate(90) translate(-32, -32)">
<image x="0" y="0" width="64" height="64" href="assets/stamps/halfthinrect.png"/>
</g>
<g transform="translate(392, 63) translate(32, 32) translate(-32, -32)">
<image x="0" y="0" width="64" height="64" href="assets/stamps/roof.png"/>
</g>
<g transform="translate(523, 60) translate(32, 32) translate(-32, -32)">
<image x="0" y="0" width="64" height="64" href="assets/stamps/roof.png"/>
</g>
<g transform="translate(324, 130) translate(32, 32) translate(-32, -32)">
<image x="0" y="0" width="64" height="64" href="assets/stamps/lhalframp.png"/>
</g>
<g transform="translate(589, 130) translate(32, 32) translate(-32, -32)">
<image x="0" y="0" width="64" height="64" href="assets/stamps/rhalframp.png"/>
</g>
<g transform="translate(391, 21) translate(32, 32) translate(-32, -32)">
<image x="0" y="0" width="64" height="64" href="assets/stamps/pipe.png"/>
</g>
<g transform="translate(374, -5) translate(32, 32) rotate(98) translate(-32, -32)">
<image x="0" y="0" width="64" height="64" href="assets/stamps/halfthinrect.png" clip-path="url(#0)"/>
</g>
<g transform="translate(522, 21) translate(32, 32) translate(-32, -32)">
<image x="0" y="0" width="64" height="64" href="assets/stamps/pipe.png"/>
</g>
<g transform="translate(504, -5) translate(32, 32) rotate(-83) translate(-32, -32)">
<image x="0" y="0" width="64" height="64" href="assets/stamps/halfthinrect.png" clip-path="url(#1)"/>
</g>
<g transform="translate(335, 570) translate(32, 32) rotate(90) translate(-32, -32)">
<image x="0" y="0" width="64" height="64" href="assets/stamps/pipe.png"/>
</g>
<g transform="translate(383, 569) translate(32, 32) rotate(90) translate(-32, -32)">
<image x="0" y="0" width="64" height="64" href="assets/stamps/pipe.png"/>
</g>
<g transform="translate(432, 571) translate(32, 32) rotate(90) translate(-32, -32)">
<image x="0" y="0" width="64" height="64" href="assets/stamps/pipe.png"/>
</g>
<g transform="translate(476, 570) translate(32, 32) rotate(90) translate(-32, -32)">
<image x="0" y="0" width="64" height="64" href="assets/stamps/pipe.png"/>
</g>
<g transform="translate(511, 573) translate(32, 32) rotate(90) translate(-32, -32)">
<image x="0" y="0" width="64" height="64" href="assets/stamps/pipe.png"/>
</g>
<g transform="translate(563, 571) translate(32, 32) rotate(90) translate(-32, -32)">
<image x="0" y="0" width="64" height="64" href="assets/stamps/pipe.png"/>
</g>
<g transform="translate(609, 569) translate(32, 32) rotate(90) translate(-32, -32)">
<image x="0" y="0" width="64" height="64" href="assets/stamps/pipe.png"/>
</g>
<g transform="translate(646, 573) translate(32, 32) rotate(90) translate(-32, -32)">
<image x="0" y="0" width="64" height="64" href="assets/stamps/pipe.png"/>
</g>
<g transform="translate(689, 572) translate(32, 32) rotate(90) translate(-32, -32)">
<image x="0" y="0" width="64" height="64" href="assets/stamps/pipe.png"/>
</g>
<g transform="translate(722, 573) translate(32, 32) rotate(90) translate(-32, -32)">
<image x="0" y="0" width="64" height="64" href="assets/stamps/pipe.png"/>
</g>
<g transform="translate(288, 575) translate(32, 32) rotate(90) translate(-32, -32)">
<image x="0" y="0" width="64" height="64" href="assets/stamps/pipe.png"/>
</g>
<g transform="translate(259, 570) translate(32, 32) rotate(90) translate(-32, -32)">
<image x="0" y="0" width="64" height="64" href="assets/stamps/pipe.png"/>
</g>
<g transform="translate(244, 571) translate(32, 32) rotate(90) translate(-32, -32)">
<image x="0" y="0" width="64" height="64" href="assets/stamps/pipe.png"/>
</g>
<g transform="translate(184, 574) translate(32, 32) rotate(90) translate(-32, -32)">
<image x="0" y="0" width="64" height="64" href="assets/stamps/pipe.png"/>
</g>
<g transform="translate(187, 561) translate(32, 32) translate(-32, -32)">
<image x="0" y="0" width="64" height="64" href="assets/stamps/halfpipe.png"/>
</g>
<g transform="translate(190, 513) translate(32, 32) translate(-32, -32)">
<image x="0" y="0" width="64" height="64" href="assets/stamps/circle.png"/>
</g>
<g transform="translate(233, 559) translate(32, 32) translate(-32, -32)">
<image x="0" y="0" width="64" height="64" href="assets/stamps/quartpipe.png"/>
</g>
<g transform="translate(234, 533) translate(32, 32) translate(-32, -32)">
<image x="0" y="0" width="64" height="64" href="assets/stamps/medcircle.png"/>
</g>
<g transform="translate(664, 555) translate(32, 32) translate(-32, -32)">
<image x="0" y="0" width="64" height="64" href="assets/stamps/halfpipe.png"/>
</g>
<g transform="translate(664, 506) translate(32, 32) translate(-32, -32)">
<image x="0" y="0" width="64" height="64" href="assets/stamps/circle.png"/>
</g>
<g transform="translate(303, 476) translate(32, 32) translate(-32, -32)">
<image x="0" y="0" width="64" height="64" href="assets/stamps/rarch.png"/>
</g>
<g transform="translate(606, 475) translate(32, 32) translate(-32, -32)">
<image x="0" y="0" width="64" height="64" href="assets/stamps/larch.png"/>
</g>
<g transform="translate(307, 439) translate(32, 32) translate(-32, -32)">
<image x="0" y="0" width="64" height="64" href="assets/stamps/quartpipe.png"/>
</g>
<g transform="translate(296, 441) translate(32, 32) translate(-32, -32)">
<image x="0" y="0" width="64" height="64" href="assets/stamps/quartpipe.png"/>
</g>
<g transform="translate(298, 428) translate(32, 32) translate(-32, -32)">
<image x="0" y="0" width="64" height="64" href="assets/stamps/smallcircle.png"/>
</g>
<g transform="translate(596, 441) translate(32, 32) translate(-32, -32)">
<image x="0" y="0" width="64" height="64" href="assets/stamps/quartpipe.png"/>
</g>
<g transform="translate(603, 435) translate(32, 32) translate(-32, -32)">
<image x="0" y="0" width="64" height="64" href="assets/stamps/quartpipe.png"/>
</g>
<g transform="translate(611, 434) translate(32, 32) translate(-32, -32)">
<image x="0" y="0" width="64" height="64" href="assets/stamps/quartpipe.png"/>
</g>
<g transform="translate(609, 438) translate(32, 32) translate(-32, -32)">
<image x="0" y="0" width="64" height="64" href="assets/stamps/quartpipe.png"/>
</g>
<defs>
<clipPath id="0">
<polygon points="-128 -128,128 -128,128 128,-128 128,-128 -128,165.31182824805276 1174.5659527787277,60.37531012416348 427.90382894758363,1001.1299754286554 295.68938303552153,1106.0664935525447 1042.3515068666657,165.31182824805276 1174.5659527787277,-128 -128,-869.084943483312 568.6292245374608,-974.0214616072012 -178.0328992936833,-33.26679630270944 -310.2473452057454,71.66972182117983 436.4147786253987,-869.084943483312 568.6292245374608,-128 -128"/>
</clipPath>
<clipPath id="1">
<polygon points="-128 -128,128 -128,128 128,-128 128,-128 -128,-97.19401346427307 -1241.7495463728312,-5.304528536791892 -493.36974803527426,-948.2233725960477 -377.5938718003842,-1040.1128575235289 -1125.973670137941,-97.19401346427307 -1241.7495463728312,-128 -128,926.4701605719994 -617.8523923525263,1018.3596454994805 130.52740598503055,75.44080144022463 246.30328221992067,-16.44868348725658 -502.0765161176362,926.4701605719994 -617.8523923525263,-128 -128"/>
</clipPath>
</defs>
</svg>