<svg version="2.0" width="800" height="600" xmlns="http://www.w3.org/2000/svg">
<g transform="translate(509, 536) translate(32, 32) translate(-32, -32)">
<image x="0" y="0" width="64" height="64" href="assets/rarch.svg"/>
</g>
<g transform="translate(509, 536) translate(32, 32) translate(-32, -32)">
<image x="0" y="0" width="64" height="64" href="assets/rarch.svg"/>
</g>
<g transform="translate(481, 536) translate(32, 32) translate(-32, -32)">
<image x="0" y="0" width="64" height="64" href="assets/larch.svg"/>
</g>
<g transform="translate(495, 470) translate(32, 32) translate(-32, -32)">
<image x="0" y="0" width="64" height="64" href="assets/windows.svg"/>
</g>
<g transform="translate(449, 565) translate(32, 32) rotate(90) translate(-32, -32)">
<image x="0" y="0" width="64" height="64" href="assets/halfpipe.svg"/>
</g>
<g transform="translate(419, 565) translate(32, 32) rotate(90) translate(-32, -32)">
<image x="0" y="0" width="64" height="64" href="assets/halfpipe.svg"/>
</g>
<g transform="translate(395, 564) translate(32, 32) rotate(90) translate(-32, -32)">
<image x="0" y="0" width="64" height="64" href="assets/halfpipe.svg"/>
</g>
<g transform="translate(445, 559) translate(30, 30) translate(-30, -30)">
<image x="0" y="0" width="60" height="60" href="assets/car.svg"/>
</g>
<g transform="translate(553, 549) translate(32, 32) rotate(176) translate(-32, -32)">
<image x="0" y="0" width="64" height="64" href="assets/halfpipe.svg"/>
</g>
<g transform="translate(547, 518) translate(32, 32) translate(-32, -32)">
<image x="0" y="0" width="64" height="64" href="assets/medcircle.svg"/>
</g>
<g transform="translate(551, 567) translate(32, 32) translate(-32, -32)">
<image x="0" y="0" width="64" height="64" href="assets/smallsquare.svg"/>
</g>
<g transform="translate(494, 431) translate(32, 32) rotate(90) translate(-32, -32)">
<image x="0" y="0" width="64" height="64" href="assets/pipe.svg"/>
</g>
<g transform="translate(477, 423) translate(32, 32) rotate(90) translate(-32, -32)">
<image x="0" y="0" width="64" height="64" href="assets/halfpipe.svg"/>
</g>
<g transform="translate(513, 423) translate(32, 32) rotate(90) translate(-32, -32)">
<image x="0" y="0" width="64" height="64" href="assets/halfpipe.svg"/>
</g>
<g transform="translate(494, 385) translate(32, 32) translate(-32, -32)">
<image x="0" y="0" width="64" height="64" href="assets/doublepane.svg"/>
</g>
<g transform="translate(537, 408) translate(32, 32) rotate(180) translate(-32, -32)">
<image x="0" y="0" width="64" height="64" href="assets/lquartramp.svg"/>
</g>
<g transform="translate(453, 408) translate(32, 32) rotate(180) translate(-32, -32)">
<image x="0" y="0" width="64" height="64" href="assets/rquartramp.svg"/>
</g>
<g transform="translate(537, 382) translate(32, 32) translate(-32, -32)">
<image x="0" y="0" width="64" height="64" href="assets/smallcircle.svg"/>
</g>
<g transform="translate(547, 380) translate(32, 32) translate(-32, -32)">
<image x="0" y="0" width="64" height="64" href="assets/smallcircle.svg"/>
</g>
<g transform="translate(456, 384) translate(32, 32) translate(-32, -32)">
<image x="0" y="0" width="64" height="64" href="assets/smallcircle.svg"/>
</g>
<g transform="translate(448, 507) translate(32, 32) rotate(90) translate(-32, -32)">
<image x="0" y="0" width="64" height="64" href="assets/halfpipe.svg"/>
</g>
<g transform="translate(446, 495) translate(32, 32) rotate(-90) translate(-32, -32)">
<image x="0" y="0" width="64" height="64" href="assets/rquartramp.svg"/>
</g>
<g transform="translate(606, 540) translate(32, 32) translate(-32, -32)">
<image x="0" y="0" width="64" height="64" href="assets/windows.svg"/>
</g>
<g transform="translate(562, 467) translate(32, 32) translate(-32, -32)">
<image x="0" y="0" width="64" height="64" href="assets/windows.svg"/>
</g>
<g transform="translate(625, 473) translate(32, 32) translate(-32, -32)">
<image x="0" y="0" width="64" height="64" href="assets/windows.svg"/>
</g>
<g transform="translate(646, 541) translate(32, 32) translate(-32, -32)">
<image x="0" y="0" width="64" height="64" href="assets/doric.svg"/>
</g>
<g transform="translate(562, 429) translate(32, 32) rotate(90) translate(-32, -32)">
<image x="0" y="0" width="64" height="64" href="assets/pipe.svg"/>
</g>
<g transform="translate(628, 436) translate(32, 32) rotate(90) translate(-32, -32)">
<image x="0" y="0" width="64" height="64" href="assets/pipe.svg"/>
</g>
<g transform="translate(629, 429) translate(32, 32) rotate(90) translate(-32, -32)">
<image x="0" y="0" width="64" height="64" href="assets/pipe.svg"/>
</g>
<g transform="translate(646, 406) translate(32, 32) translate(-32, -32)">
<image x="0" y="0" width="64" height="64" href="assets/harch.svg"/>
</g>
<g transform="translate(597, 390) translate(32, 32) translate(-32, -32)">
<image x="0" y="0" width="64" height="64" href="assets/porthole.svg"/>
</g>
<g transform="translate(542, 345) translate(32, 32) rotate(90) translate(-32, -32)">
<image x="0" y="0" width="64" height="64" href="assets/thinrect.svg"/>
</g>
<g transform="translate(597, 355) translate(32, 32) rotate(90) translate(-32, -32)">
<image x="0" y="0" width="64" height="64" href="assets/pipe.svg"/>
</g>
<g transform="translate(352, 567) translate(32, 32) rotate(90) translate(-32, -32)">
<image x="0" y="0" width="64" height="64" href="assets/pipe.svg"/>
</g>
<g transform="translate(297, 567) translate(32, 32) rotate(90) translate(-32, -32)">
<image x="0" y="0" width="64" height="64" href="assets/pipe.svg"/>
</g>
<g transform="translate(247, 567) translate(32, 32) rotate(90) translate(-32, -32)">
<image x="0" y="0" width="64" height="64" href="assets/pipe.svg"/>
</g>
<g transform="translate(258, 533) translate(32, 32) translate(-32, -32)">
<image x="0" y="0" width="64" height="64" href="assets/house.svg"/>
</g>
<g transform="translate(259, 496) translate(32, 32) translate(-32, -32)">
<image x="0" y="0" width="64" height="64" href="assets/smallcircle.svg"/>
</g>
<g transform="translate(425, 555) translate(30, 30) translate(-30, -30)">
<image x="0" y="0" width="60" height="60" href="assets/car.svg"/>
</g>
<g transform="translate(398, 556) translate(30, 30) translate(-30, -30)">
<image x="0" y="0" width="60" height="60" href="assets/car.svg"/>
</g>
<g transform="translate(375, 557) translate(30, 30) translate(-30, -30)">
<image x="0" y="0" width="60" height="60" href="assets/car.svg"/>
</g>
<g transform="translate(539, 311) translate(32, 32) translate(-32, -32)">
<image x="0" y="0" width="64" height="64" href="assets/doublepane.svg"/>
</g>
<g transform="translate(540, 243) translate(32, 32) translate(-32, -32)">
<image x="0" y="0" width="64" height="64" href="assets/gothic.svg"/>
</g>
<g transform="translate(505, 190) translate(32, 32) rotate(-90) translate(-32, -32)">
<image x="0" y="0" width="64" height="64" href="assets/rhalframp.svg"/>
</g>
<g transform="translate(574, 190) translate(32, 32) rotate(90) translate(-32, -32)">
<image x="0" y="0" width="64" height="64" href="assets/lhalframp.svg"/>
</g>
<g transform="translate(485, 317) translate(32, 32) translate(-32, -32)">
<image x="0" y="0" width="64" height="64" href="assets/doric.svg"/>
</g>
<g transform="translate(486, 242) translate(32, 32) translate(-32, -32)">
<image x="0" y="0" width="64" height="64" href="assets/doric.svg"/>
</g>
<g transform="translate(595, 241) translate(32, 32) translate(-32, -32)">
<image x="0" y="0" width="64" height="64" href="assets/doric.svg"/>
</g>
<g transform="translate(595, 316) translate(32, 32) translate(-32, -32)">
<image x="0" y="0" width="64" height="64" href="assets/doric.svg"/>
</g>
<g transform="translate(486, 279) translate(32, 32) rotate(90) translate(-32, -32)">
<image x="0" y="0" width="64" height="64" href="assets/halfpipe.svg"/>
</g>
<g transform="translate(592, 278) translate(32, 32) rotate(90) translate(-32, -32)">
<image x="0" y="0" width="64" height="64" href="assets/halfpipe.svg"/>
</g>
<g transform="translate(469, 342) translate(32, 32) translate(-32, -32)">
<image x="0" y="0" width="64" height="64" href="assets/smallsquare.svg"/>
</g>
<g transform="translate(615, 340) translate(32, 32) translate(-32, -32)">
<image x="0" y="0" width="64" height="64" href="assets/smallsquare.svg"/>
</g>
<g transform="translate(556, 177) translate(32, 32) rotate(270) translate(-32, -32)">
<image x="0" y="0" width="64" height="64" href="assets/lquartramp.svg"/>
</g>
<g transform="translate(521, 177) translate(32, 32) rotate(90) translate(-32, -32)">
<image x="0" y="0" width="64" height="64" href="assets/rquartramp.svg"/>
</g>
<g transform="translate(520, 133) translate(32, 32) translate(-32, -32)">
<image x="0" y="0" width="64" height="64" href="assets/hporthole.svg"/>
</g>
<g transform="translate(557, 132) translate(32, 32) translate(-32, -32)">
<image x="0" y="0" width="64" height="64" href="assets/hwindow.svg"/>
</g>
<g transform="translate(557, 82) translate(32, 32) translate(-32, -32)">
<image x="0" y="0" width="64" height="64" href="assets/medramp.svg"/>
</g>
<g transform="translate(521, 91) translate(32, 32) rotate(90) translate(-32, -32)">
<image x="0" y="0" width="64" height="64" href="assets/halfthinrect.svg"/>
</g>
<g transform="translate(521, 74) translate(32, 32) rotate(90) translate(-32, -32)">
<image x="0" y="0" width="64" height="64" href="assets/halfthinrect.svg"/>
</g>
<g transform="translate(522, 48) translate(32, 32) translate(-32, -32)">
<image x="0" y="0" width="64" height="64" href="assets/harch.svg"/>
</g>
<g transform="translate(519, 21) translate(32, 32) rotate(-90) translate(-32, -32)">
<image x="0" y="0" width="64" height="64" href="assets/rquartramp.svg"/>
</g>
<g transform="translate(646, 385) translate(32, 32) rotate(90) translate(-32, -32)">
<image x="0" y="0" width="64" height="64" href="assets/halfpipe.svg"/>
</g>
</svg>