<svg version="2.0" width="800" height="600" xmlns="http://www.w3.org/2000/svg">
<g transform="translate(404, 426) translate(32, 32) rotate(90) translate(-32, -32)">
<image x="0" y="0" width="64" height="64" href="assets/thinrect.svg"/>
</g>
<g transform="translate(404, 418) translate(32, 32) rotate(90) translate(-32, -32)">
<image x="0" y="0" width="64" height="64" href="assets/thinrect.svg"/>
</g>
<g transform="translate(380, 401) translate(32, 32) rotate(180) translate(-32, -32)">
<image x="0" y="0" width="64" height="64" href="assets/quartpipe.svg"/>
</g>
<g transform="translate(415, 401) translate(32, 32) rotate(180) translate(-32, -32)">
<image x="0" y="0" width="64" height="64" href="assets/quartpipe.svg"/>
</g>
<g transform="translate(422, 401) translate(32, 32) rotate(180) translate(-32, -32)">
<image x="0" y="0" width="64" height="64" href="assets/quartpipe.svg"/>
</g>
<g transform="translate(427, 389) translate(32, 32) rotate(90) translate(-32, -32)">
<image x="0" y="0" width="64" height="64" href="assets/halfpipe.svg"/>
</g>
<g transform="translate(444, 409) translate(32, 32) rotate(180) translate(-32, -32)">
<image x="0" y="0" width="64" height="64" href="assets/lquartramp.svg"/>
</g>
<g transform="translate(380, 443) translate(32, 32) translate(-32, -32)">
<image x="0" y="0" width="64" height="64" href="assets/smallcircle.svg"/>
</g>
<g transform="translate(399, 443) translate(32, 32) translate(-32, -32)">
<image x="0" y="0" width="64" height="64" href="assets/smallcircle.svg"/>
</g>
<g transform="translate(426, 438) translate(32, 32) translate(-32, -32)">
<image x="0" y="0" width="64" height="64" href="assets/medcircle.svg"/>
</g>
<g transform="translate(472, 424) translate(32, 32) rotate(90) translate(-32, -32)">
<image x="0" y="0" width="64" height="64" href="assets/halfthinrect.svg"/>
</g>
<g transform="translate(505, 416) translate(32, 32) translate(-32, -32)">
<image x="0" y="0" width="64" height="64" href="assets/medsquare.svg"/>
</g>
<g transform="translate(463, 442) translate(32, 32) translate(-32, -32)">
<image x="0" y="0" width="64" height="64" href="assets/smallcircle.svg"/>
</g>
<g transform="translate(478, 442) translate(32, 32) translate(-32, -32)">
<image x="0" y="0" width="64" height="64" href="assets/smallcircle.svg"/>
</g>
<g transform="translate(514, 442) translate(32, 32) translate(-32, -32)">
<image x="0" y="0" width="64" height="64" href="assets/smallcircle.svg"/>
</g>
<g transform="translate(498, 441) translate(32, 32) translate(-32, -32)">
<image x="0" y="0" width="64" height="64" href="assets/smallcircle.svg"/>
</g>
<g transform="translate(473, 408) translate(32, 32) rotate(-90) translate(-32, -32)">
<image x="0" y="0" width="64" height="64" href="assets/rquartramp.svg"/>
</g>
<g transform="translate(573, 425) translate(32, 32) rotate(90) translate(-32, -32)">
<image x="0" y="0" width="64" height="64" href="assets/thinrect.svg"/>
</g>
<g transform="translate(573, 401) translate(32, 32) rotate(90) translate(-32, -32)">
<image x="0" y="0" width="64" height="64" href="assets/hdoublepane.svg"/>
</g>
<g transform="translate(598, 378) translate(32, 32) rotate(90) translate(-32, -32)">
<image x="0" y="0" width="64" height="64" href="assets/lquartramp.svg"/>
</g>
<g transform="translate(546, 378) translate(32, 32) rotate(-90) translate(-32, -32)">
<image x="0" y="0" width="64" height="64" href="assets/rquartramp.svg"/>
</g>
<g transform="translate(572, 381) translate(32, 32) rotate(90) translate(-32, -32)">
<image x="0" y="0" width="64" height="64" href="assets/quartpipe.svg"/>
</g>
<g transform="translate(572, 374) translate(32, 32) rotate(90) translate(-32, -32)">
<image x="0" y="0" width="64" height="64" href="assets/quartpipe.svg"/>
</g>
<g transform="translate(543, 441) translate(32, 32) translate(-32, -32)">
<image x="0" y="0" width="64" height="64" href="assets/smallcircle.svg"/>
</g>
<g transform="translate(560, 441) translate(32, 32) translate(-32, -32)">
<image x="0" y="0" width="64" height="64" href="assets/smallcircle.svg"/>
</g>
<g transform="translate(591, 441) translate(32, 32) translate(-32, -32)">
<image x="0" y="0" width="64" height="64" href="assets/smallcircle.svg"/>
</g>
<g transform="translate(606, 441) translate(32, 32) translate(-32, -32)">
<image x="0" y="0" width="64" height="64" href="assets/smallcircle.svg"/>
</g>
<g transform="translate(637, 400) translate(32, 32) translate(-32, -32)">
<image x="0" y="0" width="64" height="64" href="assets/larch.svg"/>
</g>
<g transform="translate(668, 338) translate(32, 32) translate(-32, -32)">
<image x="0" y="0" width="64" height="64" href="assets/larch.svg"/>
</g>
<g transform="translate(708, 345) translate(32, 32) translate(-32, -32)">
<image x="0" y="0" width="64" height="64" href="assets/rarch.svg"/>
</g>
<g transform="translate(738, 411) translate(32, 32) translate(-32, -32)">
<image x="0" y="0" width="64" height="64" href="assets/rarch.svg"/>
</g>
<g transform="translate(664, 403) translate(32, 32) rotate(90) translate(-32, -32)">
<image x="0" y="0" width="64" height="64" href="assets/hdoublepane.svg" clip-path="url(#0)"/>
</g>
<g transform="translate(748, 403) translate(32, 32) rotate(90) translate(-32, -32)">
<image x="0" y="0" width="64" height="64" href="assets/hdoublepane.svg" clip-path="url(#1)"/>
</g>
<g transform="translate(685, 378) translate(32, 32) rotate(90) translate(-32, -32)">
<image x="0" y="0" width="64" height="64" href="assets/lquartramp.svg" clip-path="url(#2)"/>
</g>
<g transform="translate(725, 378) translate(32, 32) rotate(-90) translate(-32, -32)">
<image x="0" y="0" width="64" height="64" href="assets/rquartramp.svg" clip-path="url(#3)"/>
</g>
<g transform="translate(633, 375) translate(32, 32) rotate(-90) translate(-32, -32)">
<image x="0" y="0" width="64" height="64" href="assets/rquartramp.svg" clip-path="url(#4)"/>
</g>
<g transform="translate(661, 382) translate(32, 32) rotate(90) translate(-32, -32)">
<image x="0" y="0" width="64" height="64" href="assets/quartpipe.svg" clip-path="url(#5)"/>
</g>
<g transform="translate(661, 375) translate(32, 32) rotate(90) translate(-32, -32)">
<image x="0" y="0" width="64" height="64" href="assets/quartpipe.svg" clip-path="url(#6)"/>
</g>
<g transform="translate(663, 428) translate(32, 32) rotate(90) translate(-32, -32)">
<image x="0" y="0" width="64" height="64" href="assets/thinrect.svg" clip-path="url(#7)"/>
</g>
<g transform="translate(749, 428) translate(32, 32) rotate(90) translate(-32, -32)">
<image x="0" y="0" width="64" height="64" href="assets/thinrect.svg" clip-path="url(#8)"/>
</g>
<g transform="translate(638, 438) translate(32, 32) translate(-32, -32)">
<image x="0" y="0" width="64" height="64" href="assets/smallcircle.svg" clip-path="url(#9)"/>
</g>
<g transform="translate(652, 439) translate(32, 32) translate(-32, -32)">
<image x="0" y="0" width="64" height="64" href="assets/smallcircle.svg" clip-path="url(#10)"/>
</g>
<g transform="translate(680, 438) translate(32, 32) translate(-32, -32)">
<image x="0" y="0" width="64" height="64" href="assets/smallcircle.svg" clip-path="url(#11)"/>
</g>
<g transform="translate(696, 438) translate(32, 32) translate(-32, -32)">
<image x="0" y="0" width="64" height="64" href="assets/smallcircle.svg" clip-path="url(#12)"/>
</g>
<g transform="translate(725, 439) translate(32, 32) translate(-32, -32)">
<image x="0" y="0" width="64" height="64" href="assets/smallcircle.svg" clip-path="url(#13)"/>
</g>
<g transform="translate(738, 439) translate(32, 32) translate(-32, -32)">
<image x="0" y="0" width="64" height="64" href="assets/smallcircle.svg" clip-path="url(#14)"/>
</g>
<g transform="translate(637, 378) translate(32, 32) rotate(-90) translate(-32, -32)">
<image x="0" y="0" width="64" height="64" href="assets/rquartramp.svg"/>
</g>
<g transform="translate(664, 403) translate(32, 32) rotate(90) translate(-32, -32)">
<image x="0" y="0" width="64" height="64" href="assets/hdoublepane.svg"/>
</g>
<g transform="translate(635, 335) translate(32, 32) translate(-32, -32)">
<image x="0" y="0" width="64" height="64" href="assets/lhalframp.svg"/>
</g>
<g transform="translate(741, 342) translate(32, 32) translate(-32, -32)">
<image x="0" y="0" width="64" height="64" href="assets/rhalframp.svg"/>
</g>
<g transform="translate(689, 298) translate(32, 32) rotate(95) translate(-32, -32)">
<image x="0" y="0" width="64" height="64" href="assets/thinrect.svg"/>
</g>
<g transform="translate(382, 381) translate(32, 32) translate(-32, -32)">
<image x="0" y="0" width="64" height="64" href="assets/smallcircle.svg"/>
</g>
<g transform="translate(388, 372) translate(32, 32) translate(-32, -32)">
<image x="0" y="0" width="64" height="64" href="assets/smallcircle.svg"/>
</g>
<g transform="translate(396, 375) translate(32, 32) translate(-32, -32)">
<image x="0" y="0" width="64" height="64" href="assets/smallcircle.svg"/>
</g>
<g transform="translate(401, 358) translate(32, 32) translate(-32, -32)">
<image x="0" y="0" width="64" height="64" href="assets/smallcircle.svg"/>
</g>
<g transform="translate(414, 366) translate(32, 32) translate(-32, -32)">
<image x="0" y="0" width="64" height="64" href="assets/smallcircle.svg"/>
</g>
<g transform="translate(408, 373) translate(32, 32) translate(-32, -32)">
<image x="0" y="0" width="64" height="64" href="assets/smallcircle.svg"/>
</g>
<g transform="translate(428, 355) translate(32, 32) translate(-32, -32)">
<image x="0" y="0" width="64" height="64" href="assets/smallcircle.svg"/>
</g>
<g transform="translate(461, 344) translate(32, 32) translate(-32, -32)">
<image x="0" y="0" width="64" height="64" href="assets/smallcircle.svg"/>
</g>
<g transform="translate(451, 361) translate(32, 32) translate(-32, -32)">
<image x="0" y="0" width="64" height="64" href="assets/smallcircle.svg"/>
</g>
<g transform="translate(440, 347) translate(32, 32) translate(-32, -32)">
<image x="0" y="0" width="64" height="64" href="assets/smallcircle.svg"/>
</g>
<g transform="translate(480, 359) translate(32, 32) translate(-32, -32)">
<image x="0" y="0" width="64" height="64" href="assets/smallcircle.svg"/>
</g>
<g transform="translate(507, 339) translate(32, 32) translate(-32, -32)">
<image x="0" y="0" width="64" height="64" href="assets/smallcircle.svg"/>
</g>
<g transform="translate(761, 298) translate(32, 32) rotate(90) translate(-32, -32)">
<image x="0" y="0" width="64" height="64" href="assets/thinrect.svg"/>
</g>
<g transform="translate(709, 280) translate(32, 32) rotate(90) translate(-32, -32)">
<image x="0" y="0" width="64" height="64" href="assets/thinrect.svg"/>
</g>
<g transform="translate(788, 279) translate(32, 32) rotate(90) translate(-32, -32)">
<image x="0" y="0" width="64" height="64" href="assets/thinrect.svg"/>
</g>
<g transform="translate(772, 318) translate(32, 32) rotate(90) translate(-32, -32)">
<image x="0" y="0" width="64" height="64" href="assets/thinrect.svg"/>
</g>
<g transform="translate(778, 344) translate(32, 32) rotate(90) translate(-32, -32)">
<image x="0" y="0" width="64" height="64" href="assets/thinrect.svg"/>
</g>
<g transform="translate(832, 295) translate(32, 32) rotate(90) translate(-32, -32)">
<image x="0" y="0" width="64" height="64" href="assets/thinrect.svg"/>
</g>
<g transform="translate(841, 318) translate(32, 32) rotate(90) translate(-32, -32)">
<image x="0" y="0" width="64" height="64" href="assets/thinrect.svg"/>
</g>
<g transform="translate(848, 345) translate(32, 32) rotate(90) translate(-32, -32)">
<image x="0" y="0" width="64" height="64" href="assets/thinrect.svg"/>
</g>
<g transform="translate(789, 362) translate(32, 32) rotate(90) translate(-32, -32)">
<image x="0" y="0" width="64" height="64" href="assets/thinrect.svg"/>
</g>
<g transform="translate(791, 387) translate(32, 32) rotate(90) translate(-32, -32)">
<image x="0" y="0" width="64" height="64" href="assets/thinrect.svg"/>
</g>
<g transform="translate(787, 404) translate(32, 32) rotate(90) translate(-32, -32)">
<image x="0" y="0" width="64" height="64" href="assets/thinrect.svg"/>
</g>
<g transform="translate(792, 424) translate(32, 32) rotate(90) translate(-32, -32)">
<image x="0" y="0" width="64" height="64" href="assets/thinrect.svg"/>
</g>
<g transform="translate(789, 445) translate(32, 32) rotate(90) translate(-32, -32)">
<image x="0" y="0" width="64" height="64" href="assets/thinrect.svg"/>
</g>
<g transform="translate(840, 364) translate(32, 32) rotate(90) translate(-32, -32)">
<image x="0" y="0" width="64" height="64" href="assets/halfthinrect.svg"/>
</g>
<g transform="translate(845, 387) translate(32, 32) rotate(90) translate(-32, -32)">
<image x="0" y="0" width="64" height="64" href="assets/halfthinrect.svg"/>
</g>
<g transform="translate(843, 407) translate(32, 32) rotate(90) translate(-32, -32)">
<image x="0" y="0" width="64" height="64" href="assets/halfthinrect.svg"/>
</g>
<g transform="translate(845, 432) translate(32, 32) rotate(90) translate(-32, -32)">
<image x="0" y="0" width="64" height="64" href="assets/halfthinrect.svg"/>
</g>
<g transform="translate(843, 451) translate(32, 32) rotate(90) translate(-32, -32)">
<image x="0" y="0" width="64" height="64" href="assets/halfthinrect.svg"/>
</g>
<g transform="translate(842, 277) translate(32, 32) rotate(90) translate(-32, -32)">
<image x="0" y="0" width="64" height="64" href="assets/halfthinrect.svg"/>
</g>
<defs>
<clipPath id="0">
<polygon points="-128 -128,128 -128,128 128,-128 128,-128 -128,-275.66124965262213 111.07165017959777,-606.1930943315865 -566.6190607299741,247.6612496526222 -983.0716501795978,578.1930943315865 -305.38093927002564,-275.66124965262213 111.07165017959777,-128 -128,-400.552940025458 906.217587724082,-1060.0161992085623 540.6711340583438,-599.4470599745421 -290.2175877240821,60.016199208562284 75.32886594165609,-400.552940025458 906.217587724082,-128 -128"/>
</clipPath>
<clipPath id="1">
<polygon points="-128 -128,128 -128,128 128,-128 128,-128 -128,-275.66124965262213 195.07165017959775,-606.1930943315865 -482.6190607299741,247.6612496526222 -899.0716501795978,578.1930943315865 -221.38093927002566,-275.66124965262213 195.07165017959775,-128 -128,-400.552940025458 990.217587724082,-1060.0161992085623 624.6711340583438,-599.4470599745421 -206.21758772408205,60.01619920856228 159.3288659416561,-400.552940025458 990.217587724082,-128 -128"/>
</clipPath>
<clipPath id="2">
<polygon points="-128 -128,128 -128,128 128,-128 128,-128 -128,-250.66124965262213 132.07165017959778,-581.1930943315865 -545.6190607299741,272.6612496526222 -962.0716501795978,603.1930943315865 -284.38093927002564,-250.66124965262213 132.07165017959778,-128 -128,-375.552940025458 927.217587724082,-1035.0161992085623 561.6711340583438,-574.4470599745421 -269.2175877240821,85.01619920856228 96.32886594165609,-375.552940025458 927.217587724082,-128 -128"/>
</clipPath>
<clipPath id="3">
<polygon points="-128 -128,128 -128,128 128,-128 128,-128 -128,314.66124965262213 -108.07165017959781,645.1930943315865 569.6190607299741,-208.66124965262208 986.0716501795978,-539.1930943315865 308.38093927002575,314.66124965262213 -108.07165017959781,-128 -128,439.5529400254579 -903.217587724082,1099.0161992085623 -537.671134058344,638.4470599745421 293.21758772408197,-21.01619920856229 -72.32886594165609,439.5529400254579 -903.217587724082,-128 -128"/>
</clipPath>
<clipPath id="4">
<polygon points="-128 -128,128 -128,128 128,-128 128,-128 -128,311.66124965262213 -16.071650179597796,642.1930943315865 661.6190607299741,-211.66124965262208 1078.0716501795978,-542.1930943315865 400.38093927002575,311.66124965262213 -16.071650179597796,-128 -128,436.5529400254579 -811.217587724082,1096.0161992085623 -445.67113405834397,635.4470599745421 385.21758772408197,-24.016199208562284 19.671134058343913,436.5529400254579 -811.217587724082,-128 -128"/>
</clipPath>
<clipPath id="5">
<polygon points="-128 -128,128 -128,128 128,-128 128,-128 -128,-254.66124965262213 108.07165017959777,-585.1930943315865 -569.6190607299741,268.6612496526222 -986.0716501795978,599.1930943315865 -308.38093927002564,-254.66124965262213 108.07165017959777,-128 -128,-379.552940025458 903.217587724082,-1039.0161992085623 537.6711340583438,-578.4470599745421 -293.2175877240821,81.01619920856228 72.32886594165609,-379.552940025458 903.217587724082,-128 -128"/>
</clipPath>
<clipPath id="6">
<polygon points="-128 -128,128 -128,128 128,-128 128,-128 -128,-247.66124965262213 108.07165017959777,-578.1930943315865 -569.6190607299741,275.6612496526222 -986.0716501795978,606.1930943315865 -308.38093927002564,-247.66124965262213 108.07165017959777,-128 -128,-372.552940025458 903.217587724082,-1032.0161992085623 537.6711340583438,-571.4470599745421 -293.2175877240821,88.01619920856228 72.32886594165609,-372.552940025458 903.217587724082,-128 -128"/>
</clipPath>
<clipPath id="7">
<polygon points="-128 -128,128 -128,128 128,-128 128,-128 -128,-300.66124965262213 110.07165017959777,-631.1930943315865 -567.6190607299741,222.6612496526222 -984.0716501795978,553.1930943315865 -306.38093927002564,-300.66124965262213 110.07165017959777,-128 -128,-425.552940025458 905.217587724082,-1085.0161992085623 539.6711340583438,-624.4470599745421 -291.2175877240821,35.016199208562284 74.32886594165609,-425.552940025458 905.217587724082,-128 -128"/>
</clipPath>
<clipPath id="8">
<polygon points="-128 -128,128 -128,128 128,-128 128,-128 -128,-300.66124965262213 196.07165017959775,-631.1930943315865 -481.6190607299741,222.6612496526222 -898.0716501795978,553.1930943315865 -220.38093927002566,-300.66124965262213 196.07165017959775,-128 -128,-425.552940025458 991.217587724082,-1085.0161992085623 625.6711340583438,-624.4470599745421 -205.21758772408205,35.01619920856228 160.3288659416561,-425.552940025458 991.217587724082,-128 -128"/>
</clipPath>
<clipPath id="9">
<polygon points="-128 -128,128 -128,128 128,-128 128,-128 -128,-21.071650179597782 -310.66124965262213,656.6190607299741 -641.1930943315865,1073.0716501795978 212.66124965262213,395.3809392700257 543.1930943315865,-21.071650179597782 -310.66124965262213,-128 -128,-816.217587724082 -435.55294002545793,-450.6711340583439 -1095.0161992085623,380.217587724082 -634.4470599745421,14.67113405834391 25.016199208562284,-816.217587724082 -435.55294002545793,-128 -128"/>
</clipPath>
<clipPath id="10">
<polygon points="-128 -128,128 -128,128 128,-128 128,-128 -128,-35.07165017959778 -311.66124965262213,642.6190607299741 -642.1930943315865,1059.0716501795978 211.66124965262213,381.3809392700257 542.1930943315865,-35.07165017959778 -311.66124965262213,-128 -128,-830.217587724082 -436.55294002545793,-464.6711340583439 -1096.0161992085623,366.217587724082 -635.4470599745421,0.6711340583439096 24.016199208562284,-830.217587724082 -436.55294002545793,-128 -128"/>
</clipPath>
<clipPath id="11">
<polygon points="-128 -128,128 -128,128 128,-128 128,-128 -128,-63.07165017959778 -310.66124965262213,614.6190607299741 -641.1930943315865,1031.0716501795978 212.66124965262213,353.3809392700257 543.1930943315865,-63.07165017959778 -310.66124965262213,-128 -128,-858.217587724082 -435.55294002545793,-492.6711340583439 -1095.0161992085623,338.217587724082 -634.4470599745421,-27.32886594165609 25.016199208562284,-858.217587724082 -435.55294002545793,-128 -128"/>
</clipPath>
<clipPath id="12">
<polygon points="-128 -128,128 -128,128 128,-128 128,-128 -128,-79.07165017959778 -310.66124965262213,598.6190607299741 -641.1930943315865,1015.0716501795978 212.66124965262213,337.3809392700257 543.1930943315865,-79.07165017959778 -310.66124965262213,-128 -128,-874.217587724082 -435.55294002545793,-508.6711340583439 -1095.0161992085623,322.217587724082 -634.4470599745421,-43.32886594165609 25.016199208562284,-874.217587724082 -435.55294002545793,-128 -128"/>
</clipPath>
<clipPath id="13">
<polygon points="-128 -128,128 -128,128 128,-128 128,-128 -128,-108.07165017959778 -311.66124965262213,569.6190607299741 -642.1930943315865,986.0716501795978 211.66124965262213,308.3809392700257 542.1930943315865,-108.07165017959778 -311.66124965262213,-128 -128,-903.217587724082 -436.55294002545793,-537.6711340583439 -1096.0161992085623,293.217587724082 -635.4470599745421,-72.32886594165609 24.016199208562284,-903.217587724082 -436.55294002545793,-128 -128"/>
</clipPath>
<clipPath id="14">
<polygon points="-128 -128,128 -128,128 128,-128 128,-128 -128,-121.07165017959778 -311.66124965262213,556.6190607299741 -642.1930943315865,973.0716501795978 211.66124965262213,295.3809392700257 542.1930943315865,-121.07165017959778 -311.66124965262213,-128 -128,-916.217587724082 -436.55294002545793,-550.6711340583439 -1096.0161992085623,280.217587724082 -635.4470599745421,-85.32886594165609 24.016199208562284,-916.217587724082 -436.55294002545793,-128 -128"/>
</clipPath>
</defs>
</svg>